inDegrees=no
num_controls=7
num_derivatives=13
num_iterations=119
num_multipliers=7
num_parameters=0
num_slacks=7
num_states=26
objective=0.452902
objective_accelerations=0.047835
objective_balance=0.001037
objective_effort=0.037282
objective_height=0.361114
objective_ligament=0.005634
solver_duration=1339.204386
status=Solve_Succeeded
success=true
DataType=double
version=3
OpenSimVersion=4.5
endheader
time	/jointset/ground_pelvis/pelvis_tilt/value	/jointset/ground_pelvis/pelvis_tx/value	/jointset/ground_pelvis/pelvis_ty/value	/jointset/hip_r/hip_flexion_r/value	/jointset/hip_r/hip_adduction_r/value	/jointset/hip_r/hip_rotation_r/value	/jointset/back/lumbar_extension/value	/jointset/patellofemoral_r/patellar_flexion_r/value	/jointset/knee_r/knee_flexion_r/value	/jointset/knee_r/knee_adduction_r/value	/jointset/knee_r/knee_rotation_r/value	/jointset/ankle_r/ankle_angle_r/value	/jointset/subtalar_r/subtalar_angle_r/value	/jointset/ground_pelvis/pelvis_tilt/speed	/jointset/ground_pelvis/pelvis_tx/speed	/jointset/ground_pelvis/pelvis_ty/speed	/jointset/hip_r/hip_flexion_r/speed	/jointset/hip_r/hip_adduction_r/speed	/jointset/hip_r/hip_rotation_r/speed	/jointset/back/lumbar_extension/speed	/jointset/patellofemoral_r/patellar_flexion_r/speed	/jointset/knee_r/knee_flexion_r/speed	/jointset/knee_r/knee_adduction_r/speed	/jointset/knee_r/knee_rotation_r/speed	/jointset/ankle_r/ankle_angle_r/speed	/jointset/subtalar_r/subtalar_angle_r/speed	/forceset/tau_hip_flexion_r	/forceset/tau_hip_adduction_r	/forceset/tau_hip_rotation_r	/forceset/tau_knee_flexion_r	/forceset/tau_ankle_angle_r	/forceset/tau_subtalar_angle_r	/forceset/tau_lumbar_extension	lambda_cid13_p0	lambda_cid14_p0	lambda_cid14_p1	lambda_cid14_p2	lambda_cid14_p3	lambda_cid14_p4	lambda_cid14_p5	/jointset/ground_pelvis/pelvis_tilt/accel	/jointset/ground_pelvis/pelvis_tx/accel	/jointset/ground_pelvis/pelvis_ty/accel	/jointset/hip_r/hip_flexion_r/accel	/jointset/hip_r/hip_adduction_r/accel	/jointset/hip_r/hip_rotation_r/accel	/jointset/back/lumbar_extension/accel	/jointset/patellofemoral_r/patellar_flexion_r/accel	/jointset/knee_r/knee_flexion_r/accel	/jointset/knee_r/knee_adduction_r/accel	/jointset/knee_r/knee_rotation_r/accel	/jointset/ankle_r/ankle_angle_r/accel	/jointset/subtalar_r/subtalar_angle_r/accel	gamma_cid13_p0	gamma_cid14_p0	gamma_cid14_p1	gamma_cid14_p2	gamma_cid14_p3	gamma_cid14_p4	gamma_cid14_p5
0	-0.0002664289406954994	0.1280743383018464	0.9342956209934727	0.1934211968871041	-0.2169715536277198	-0.2376345943361107	-0.2903787966825928	0.2311786273363411	0.2311786273363406	0.108575195615549	0.1626360784619431	0.089344008118978	0.07771627744974045	0	0	0	0	0	0	0	0	0	0	0	0	0	0.1092991677122269	-0.04090123086523863	0.001289905100454733	-0.2437294291799379	0.1270004816223728	-0.07925308450002663	-0.02881324589707196	-29.53973937437334	-5.244321239818503	-31.45015600744341	0.9952587009033554	0.8630632147455752	-609.3654474460138	41.48869541754949	-1.783007879403994	-1.811730088292866	-0.8573895144290834	9.874756188598695	0.1386228490412501	1.993864791433637	-6.290687089485891	10.25368187360654	10.25368187360598	-2.977598307485762	0.4136786592807511	2.901764961166426	1.022544939620004	7.169091327653106e-08	3.09722783204495e-08	-5.457482129073326e-07	3.826478498701379e-07	3.230886335683205e-08	1.838185556702029e-07	-4.841786649607546e-07
0.01	-0.0003494858768109356	0.1279850166030123	0.9342539668791229	0.1939012274953785	-0.2169639196711292	-0.2375366516090996	-0.2906947995576294	0.2316810968905149	0.2316810968904873	0.1084274888291699	0.1626556017603094	0.08948623289931042	0.07776743615302824	-0.01653894127771333	-0.0177614244119955	-0.008307068204037055	0.09549334444144991	0.001407976402452003	0.01936956344659084	-0.06278193957946522	0.09999385789468672	0.09999385789468557	-0.02916020511100882	0.004057518780424214	0.02828031770190877	0.01003926946074729	0.105236176096979	-0.05328830790745333	0.001633817755036719	-0.2401141121526921	0.1195337034007214	-0.06724522715577792	-0.02509048340633131	-29.54556690830499	-7.006733400170483	-26.27647461742312	-0.1348368341434946	1.015340569490243	-610.9535447898359	52.0477282510501	-1.57847200835317	-1.742904852713843	-0.8137655097896894	9.309707686039204	0.1240519369039537	1.875734351029315	-6.209152077970568	9.797215468610357	9.797215468610526	-2.828108315449679	0.4247935730518436	2.766480761745996	0.9657068811816731	5.546736517962337e-08	1.132018086843786e-08	-3.980207972246261e-07	3.050604989983423e-07	3.418632457636105e-08	3.979038702022711e-08	-3.709011103481799e-07
0.02	-0.0005957591769852153	0.1277211694130461	0.9341299620754532	0.1953208083708973	-0.2169457725703113	-0.2372515668016797	-0.2916260627656199	0.2331685005678513	0.2331685005678514	0.107999604651235	0.1627203012636483	0.08990632397406545	0.07791320533729944	-0.03264327281136208	-0.03490509822645618	-0.01647013786401751	0.1879100534477316	0.00210262884715142	0.03742841608347917	-0.1230520665906776	0.1969868246377992	0.1969868246378004	-0.05603547832367437	0.009035240985988456	0.05557325888553412	0.01892209619668039	0.1011731844818202	-0.06567538494959986	0.00197773040985338	-0.2364987951254046	0.1120669251791107	-0.05523736981143616	-0.02136772091555506	-29.56280118293801	-8.689747377083167	-21.10479406063687	-1.246447993248725	1.195897880391864	-611.2728485987941	62.33313487849069	-1.696085930591057	-1.688179968785923	-0.8285898056177625	9.259429101565058	-0.004041942509266346	1.731722629493132	-5.788324575835314	9.6535036432917	9.653503643291842	-2.52061192781711	0.5977193443087575	2.704289657509717	0.791256394657162	3.924381708271567e-08	-8.331916583573776e-09	-2.502933815419198e-07	2.274731481265467e-07	3.606378579589006e-08	-1.042377816297487e-07	-2.576235557356052e-07
0.03	-0.001001420771213799	0.1272888065632496	0.9339247452676109	0.1976507520151637	-0.2169229628372715	-0.2367911257497904	-0.2931472092265926	0.2356115751482848	0.2356115751482989	0.1073116331477799	0.162837196623962	0.09059491411299461	0.07814377493739191	-0.04842923527747439	-0.05148046390212402	-0.02457211338452233	0.2776764316992102	0.002491449544623694	0.05462859726148221	-0.1807753448496618	0.2911840985935263	0.2911840985935261	-0.08149262693211637	0.01420835335784321	0.08203494105084953	0.02720303768368012	0.09635803306431927	-0.06240542534434812	0.002221303629639901	-0.2323100297838097	0.1070557590426953	-0.05473458522183232	-0.01726341985805356	-29.59095856884627	-10.27213572896271	-21.10593212902832	-1.3120223812255	1.644767502394109	-611.6809296591645	61.44881774732788	-1.510876158072882	-1.629156472056535	-0.8008563067676657	8.774907001146008	0.06517188407368821	1.709530196145194	-5.704047337784899	9.236232560000625	9.236232560000333	-2.548352860056232	0.4568287734566753	2.600635266448349	0.8481837039624723	5.132172621797546e-08	-1.571341432098534e-08	-3.250261994756913e-07	2.745921882998989e-07	5.135430524236434e-08	-1.856872957349492e-07	-3.198453280722529e-07
0.04	-0.001563146940794161	0.1266933017356766	0.9336385377282636	0.2008662924047824	-0.2168952993356142	-0.2361596100192772	-0.2952335320475259	0.2389833011259462	0.238983301125946	0.1063710728516593	0.1630017674259421	0.09154482662766063	0.07845748808800257	-0.06385618788163896	-0.06753349378176512	-0.03266828416506082	0.3650294025189647	0.003073382570039474	0.07164335180713823	-0.236087338582841	0.3827171040807492	0.3827171040807468	-0.1065532368484912	0.01857032932301357	0.1078377340323996	0.03555080630032072	0.09154288164677109	-0.05913546573913948	0.002464876849311455	-0.2281212644422384	0.1020445929062556	-0.05423180063228693	-0.01315911880056802	-29.62870977714676	-11.7820594450052	-21.10962089529774	-1.359783617344711	2.111929548608605	-610.9327886920561	60.31743619177176	-1.624283958201491	-1.583712809580593	-0.827428857624496	8.776747615220231	0.03458052307943069	1.694637303023728	-5.306067670674313	9.120649949590851	9.120649949590856	-2.441304189403672	0.4354920629718836	2.572511820756631	0.8046218205853283	6.398317055389851e-08	-2.284191000242577e-08	-4.043458263500088e-07	3.242824942679964e-07	6.692138259042514e-08	-2.658465283031439e-07	-3.85685643232596e-07
0.05	-0.002277692286383582	0.1259400204318251	0.9332711429732778	0.2049433748037106	-0.2168615915442992	-0.2353601967828566	-0.2978606094333133	0.2432571499603786	0.2432571499603756	0.1051834061051683	0.163207457615492	0.09274937690797982	0.07885411026959725	-0.07897992474298988	-0.08301999077461726	-0.04082635261457759	0.4499278273440391	0.00364873155229691	0.08810220307180198	-0.2889461475369284	0.4715887487025122	0.4715887487025118	-0.1308012310199265	0.02254405473535668	0.1329514386807523	0.04372117946168774	0.08676083004835958	-0.05575463767385786	0.002647273749503996	-0.2252700887281051	0.09883363994418015	-0.05390011865338805	-0.009090044675403695	-29.67455033918345	-12.73313846667117	-21.12848915267447	-1.36089814808609	2.076176519158635	-610.399414893472	59.17041839720336	-1.445467094829486	-1.515688202024405	-0.8124025230473196	8.277505098411078	0.06610352621415252	1.601009907168902	-5.218488852100033	8.700821704060786	8.700821704061074	-2.389744735683819	0.3748277133479851	2.462671107568369	0.815353341323919	5.210480231382866e-08	-3.394870490981705e-08	-2.969591242649787e-07	2.589412154531057e-07	6.605250982657739e-08	-3.520637889716834e-07	-2.95858891719696e-07
0.06	-0.003141284709533127	0.1250349601464676	0.9328216861969107	0.2098556644873422	-0.2168227119750805	-0.2344002948599942	-0.3010048151775065	0.2484057952381458	0.2484057952381458	0.1037586198760433	0.1634521880457616	0.09420143849892058	0.0793308578382879	-0.093665603393444	-0.09788929008295767	-0.04908068844137633	0.5320708594595119	0.004107738151160421	0.1037410890957137	-0.3395130102639773	0.5576763927479458	0.5576763927479473	-0.1539771333781764	0.02637837746699817	0.1573399961568563	0.05157588371951588	0.08197877844996607	-0.05237380960856491	0.002829670649704376	-0.222418913013962	0.09562268698211215	-0.05356843667447282	-0.005020970550230854	-29.72675265031065	-13.61925850893311	-21.15044372736813	-1.345003744330482	2.048883165642631	-608.8336350898657	57.80458738298501	-1.536672316022116	-1.460273272678264	-0.846682333080888	8.225669073299898	0.01131204640064314	1.530644254873311	-4.847678425266635	8.563849834324984	8.563849834324968	-2.226885826766579	0.4076115268315625	2.427482386306899	0.7414880398775441	3.919317880740122e-08	-4.522300715303784e-08	-1.817111030658708e-07	1.887565014894577e-07	6.449159705801771e-08	-4.385361245076058e-07	-1.994777373995016e-07
0.07000000000000001	-0.004150144255311822	0.1239842316001454	0.9322889706887132	0.2155765477979811	-0.2167800680242816	-0.2332880576682242	-0.304642717852838	0.2544018176412457	0.2544018176412484	0.1021078992460637	0.1637346256404349	0.09589372359904412	0.07988427770343569	-0.1080460741095584	-0.1121581797360331	-0.05749254612730181	0.6116794362080175	0.004420934922462146	0.1185995593942729	-0.3876847239283213	0.6410719905047765	0.6410719905047787	-0.1760244100681809	0.0300332762856199	0.1809958815540119	0.05908073105104343	0.0767336754213474	-0.05176118009854642	0.003057497395485974	-0.2196025433222465	0.0912903071362698	-0.05048929882433387	-0.0006718253546098499	-29.78354079312196	-14.72575343804921	-19.96550932335395	-1.581207995242281	2.123470724708203	-607.6082104023009	58.94344401968951	-1.379688709372776	-1.395448015446719	-0.8430461810957157	7.764499993722588	0.0413238068648909	1.447463746038145	-4.744497705898049	8.158992459126072	8.1589924591262	-2.172267272132048	0.3330833940127234	2.316468127173472	0.7508752586735196	2.945181587738549e-08	-5.75399270110738e-08	-1.380132217958529e-07	-4.544910896524642e-09	6.873780992888327e-08	-5.413360070251193e-07	-3.461268725511166e-08
